<svg width="24" height="24" viewBox="0 0 24 24" fill="none" xmlns="http://www.w3.org/2000/svg">
<g clip-path="url(#clip0_397_285)">
<path d="M11.5969 1.91919C6.27003 1.91919 1.93689 6.25233 1.93689 11.5792C1.93689 16.906 6.27003 21.2392 11.5969 21.2392C12.2252 21.2392 12.8371 21.1719 13.4319 21.0563C14.327 21.6981 15.4203 22.08 16.6033 22.08C19.6138 22.08 22.0633 19.6306 22.0633 16.62C22.0633 15.4497 21.6902 14.3664 21.0608 13.4766C21.1846 12.8624 21.2569 12.2295 21.2569 11.5792C21.2569 6.25233 16.9238 1.91919 11.5969 1.91919ZM11.5969 2.76001C16.4601 2.76001 20.4169 6.71683 20.4169 11.58C20.4169 11.9451 20.392 12.3037 20.3463 12.6563C20.1014 12.4248 19.8366 12.2154 19.5523 12.032C19.5529 12.0212 19.555 12.0108 19.5556 12H19.4998C18.6591 11.471 17.6678 11.16 16.6033 11.16C15.5387 11.16 14.5475 11.471 13.7067 12H12.0169V13.6677C11.5682 14.3622 11.2708 15.1625 11.1769 16.0245V15.8161C10.2457 15.8396 9.34755 15.9385 8.50923 16.1081C9.12243 17.9435 10.0874 19.2363 11.1769 19.5042V17.2156C11.3078 18.4166 11.833 19.4977 12.6157 20.3368C12.2816 20.3778 11.9422 20.4 11.5969 20.4C6.73371 20.4 2.77689 16.4432 2.77689 11.58C2.77689 6.71683 6.73371 2.76001 11.5969 2.76001ZM16.6033 11.16H19.5556C19.4699 9.52537 18.8923 8.02203 17.965 6.79185C17.3157 7.14423 16.5676 7.43586 15.746 7.66056C16.0153 8.71854 16.1764 9.90001 16.2062 11.16H16.6033ZM11.1769 3.65579C10.0882 3.92375 9.12489 5.21328 8.51169 7.04532C9.35715 7.21836 10.255 7.31998 11.1769 7.34392V3.65579ZM12.0169 3.65579V7.34392C12.948 7.3204 13.8462 7.22156 14.6845 7.05188C14.0713 5.21648 13.1064 3.92375 12.0169 3.65579ZM9.25244 3.95274C7.90592 4.36728 6.71631 5.13384 5.77677 6.13806C6.34839 6.4224 6.9902 6.65987 7.68236 6.84845C8.07422 5.65271 8.61152 4.66086 9.25244 3.95274ZM13.9413 3.95274C14.5835 4.66212 15.122 5.65715 15.5139 6.85583C16.2123 6.66557 16.8538 6.42456 17.4154 6.1356C16.4762 5.13222 15.2866 4.36686 13.9413 3.95274ZM5.2247 6.79677C4.29944 8.02611 3.7239 9.52747 3.63822 11.16H6.98755C7.01737 9.89749 7.17891 8.71365 7.44939 7.65399C6.63543 7.43139 5.88536 7.14327 5.2247 6.79677ZM8.27134 7.85169C8.01304 8.85339 7.85821 9.97813 7.82755 11.16H11.1769V8.18392C10.1739 8.15872 9.19366 8.04531 8.27134 7.85169ZM14.9233 7.85825C14.0085 8.04851 13.0291 8.15956 12.0169 8.18392V11.16H15.3662C15.3356 9.98065 15.1807 8.85827 14.9233 7.85825ZM3.63822 12C3.7239 13.6346 4.30144 15.138 5.2288 16.3682C5.87812 16.0158 6.62623 15.7242 7.44775 15.4995C7.17853 14.4415 7.01737 13.26 6.98755 12H3.63822ZM7.82755 12C7.85821 13.1794 8.01306 14.3017 8.27052 15.3018C9.18528 15.1115 10.1647 15.0005 11.1769 14.9761V12H7.82755ZM16.6033 12C16.7489 12 16.8925 12.0089 17.0347 12.0222C17.0919 12.0275 17.148 12.036 17.2045 12.0435C17.2899 12.0546 17.375 12.0671 17.4588 12.0829C17.5206 12.0946 17.5817 12.108 17.6426 12.1222C17.7172 12.1395 17.7909 12.1588 17.8641 12.1797C17.9349 12.2 18.0055 12.2209 18.0749 12.2445C18.1223 12.2604 18.1685 12.2787 18.2152 12.2961C18.3038 12.3295 18.3926 12.3626 18.4785 12.4011C18.4874 12.4051 18.4958 12.4102 18.5047 12.4143C18.8385 12.5666 19.1513 12.7561 19.4374 12.9795C19.7004 13.1846 19.9429 13.4147 20.156 13.671C20.1569 13.672 20.1576 13.6732 20.1585 13.6743C20.2767 13.8168 20.3852 13.967 20.485 14.1238C20.4857 14.125 20.4867 14.1259 20.4874 14.1271C20.4892 14.1298 20.4906 14.1326 20.4924 14.1353C20.5903 14.2901 20.6796 14.4509 20.7598 14.6168C20.7607 14.6188 20.7621 14.6206 20.7631 14.6225C21.0551 15.2281 21.2233 15.904 21.2233 16.62C21.2233 19.1673 19.1506 21.24 16.6033 21.24C15.8764 21.24 15.1912 21.0663 14.5787 20.7659C14.4086 20.6828 14.2436 20.5906 14.0857 20.4886C13.9281 20.3868 13.778 20.2744 13.6345 20.1539C13.6341 20.1535 13.6334 20.1535 13.6329 20.1531C13.2923 19.8662 12.994 19.5315 12.7478 19.1589C12.6574 19.0222 12.5757 18.8794 12.5001 18.7331C12.4838 18.7018 12.4688 18.6697 12.4533 18.638C12.3925 18.5133 12.3372 18.3855 12.2876 18.2549C12.2761 18.2247 12.2648 18.1944 12.254 18.1638C12.2072 18.0322 12.1666 17.8979 12.1317 17.7611C12.123 17.7268 12.1135 17.693 12.1055 17.6585C12.0676 17.494 12.0367 17.3264 12.0169 17.1557V17.1549C11.9965 16.9791 11.9833 16.8012 11.9833 16.62C11.9833 16.4389 11.9965 16.2609 12.0169 16.0852V16.0843C12.0612 15.7026 12.154 15.3362 12.286 14.9884C12.5419 14.3137 12.9517 13.7158 13.4713 13.2346C13.4817 13.225 13.492 13.2154 13.5025 13.2059C14.0255 12.7303 14.6574 12.3721 15.3572 12.1756C15.6308 12.0987 15.9139 12.0447 16.2054 12.0197V12.0205C16.3369 12.0092 16.4689 12 16.6033 12ZM16.6033 12.84C16.371 12.84 16.1833 13.0277 16.1833 13.26V16.3952L13.8503 17.9506C13.6571 18.0795 13.6049 18.3398 13.7338 18.533C13.8144 18.6544 13.9484 18.72 14.0841 18.72C14.1639 18.72 14.2444 18.6969 14.3162 18.6495L16.8362 16.9695C16.953 16.8913 17.0233 16.7603 17.0233 16.62V13.26C17.0233 13.0277 16.8355 12.84 16.6033 12.84ZM7.6799 16.3042C6.98144 16.4944 6.33995 16.7355 5.77841 17.0244C6.71753 18.0278 7.90718 18.7932 9.25244 19.2073C8.61026 18.4979 8.07176 17.5029 7.6799 16.3042Z" fill="black"/>
</g>
<defs>
<clipPath id="clip0_397_285">
<rect width="24" height="24" fill="white"/>
</clipPath>
</defs>
</svg>
