<svg width="24" height="24" viewBox="0 0 24 24" fill="none" xmlns="http://www.w3.org/2000/svg">
<g clip-path="url(#clip0_397_291)">
<path fill-rule="evenodd" clip-rule="evenodd" d="M5.27606 4.75094C3.32926 6.55782 2.10999 9.13808 2.10999 12C2.10999 17.457 6.54298 21.89 12 21.89C14.8619 21.89 17.4422 20.6707 19.249 18.7239L18.6443 18.1191C16.9949 19.9094 14.6299 21.03 12 21.03C7.00776 21.03 2.96999 16.9922 2.96999 12C2.96999 9.3701 4.09052 7.00509 5.88084 5.35572L5.27606 4.75094ZM6.49979 5.97466C6.34121 6.11997 6.18826 6.27138 6.04129 6.42846C6.50356 6.65841 7.01066 6.85841 7.55258 7.02746L6.49979 5.97466ZM8.62619 5.62619L7.9251 4.9251C8.44888 4.62052 9.00957 4.3728 9.59971 4.19112C9.24121 4.58721 8.91437 5.07001 8.62619 5.62619ZM10.6101 7.61013L9.27301 6.27301C9.88099 4.98205 10.6851 4.10491 11.57 3.88709V7.66303C11.2468 7.65464 10.9264 7.63692 10.6101 7.61013ZM8.73709 8.21196C8.68967 8.20248 8.64239 8.19279 8.59526 8.1829C8.33081 9.20845 8.17229 10.36 8.1409 11.57H11.57V11.0449L8.73709 8.21196ZM11.57 8.56999L11.5218 8.52175C11.5378 8.5222 11.5539 8.52263 11.57 8.52303V8.56999ZM14.57 11.57L12.43 9.42999V8.52303C13.4663 8.49809 14.469 8.3844 15.4056 8.18961C15.6691 9.21344 15.8277 10.3625 15.8591 11.57H14.57ZM12.9551 12.43H12.43V15.4769C13.4568 15.5027 14.4596 15.6188 15.4039 15.8171C15.4678 15.569 15.5256 15.3137 15.577 15.0518L12.9551 12.43ZM15.8433 12.8433L15.43 12.43H15.8591C15.8555 12.5686 15.8502 12.7064 15.8433 12.8433ZM16.3051 15.7799C16.2861 15.8605 16.2664 15.9403 16.2462 16.0195C16.3885 16.0584 16.5288 16.0992 16.6671 16.142L16.3051 15.7799ZM19.0708 16.0708L16.6487 13.6487C16.6856 13.2518 16.7093 12.845 16.7191 12.43H20.1481C20.0788 13.7513 19.6961 14.9886 19.0708 16.0708ZM19.709 16.709C20.5472 15.3385 21.03 13.7263 21.03 12C21.03 7.00776 16.9922 2.96999 12 2.96999C10.2737 2.96999 8.66151 3.45281 7.29096 4.29096L6.67023 3.67023C8.20891 2.68286 10.0383 2.10999 12 2.10999C17.457 2.10999 21.89 6.54298 21.89 12C21.89 13.9617 21.3171 15.7911 20.3297 17.3297L19.709 16.709ZM12.43 7.66303V3.88709C13.5454 4.16143 14.5334 5.48495 15.1612 7.36405C14.3029 7.53777 13.3833 7.63895 12.43 7.66303ZM16.0102 7.16333C15.609 5.93611 15.0577 4.91739 14.4003 4.19112C15.7775 4.6151 16.9955 5.39867 17.957 6.42594C17.3821 6.72178 16.7253 6.96854 16.0102 7.16333ZM16.2479 7.98721C17.089 7.75716 17.8549 7.45859 18.5197 7.09782C19.4691 8.35729 20.0604 9.89643 20.1481 11.57H16.7191C16.6885 10.28 16.5235 9.07038 16.2479 7.98721ZM3.85182 11.57C3.93954 9.89858 4.52879 8.36147 5.47608 7.10286C6.15247 7.45761 6.9204 7.75259 7.75374 7.98049C7.47682 9.06538 7.31143 10.2774 7.2809 11.57H3.85182ZM5.48028 16.9022C4.53084 15.6427 3.93954 14.1035 3.85182 12.43H7.2809C7.31143 13.72 7.47643 14.9296 7.75206 16.0128C6.91098 16.2428 6.14506 16.5414 5.48028 16.9022ZM8.59442 15.8104C8.33083 14.7865 8.17229 13.6374 8.1409 12.43H11.57V15.4769C10.5337 15.5019 9.53096 15.6156 8.59442 15.8104ZM8.83881 16.6359C9.69709 16.4622 10.6167 16.361 11.57 16.3369V20.1129C10.4546 19.8385 9.46661 18.515 8.83881 16.6359ZM12.43 20.1129V16.3369C13.3738 16.3614 14.293 16.4655 15.1586 16.6426C14.5308 18.5183 13.5445 19.8385 12.43 20.1129ZM6.04297 17.574C6.61788 17.2782 7.27464 17.0314 7.98973 16.8366C8.39092 18.0639 8.94224 19.0826 9.59971 19.8089C8.22242 19.3849 7.00445 18.6013 6.04297 17.574ZM14.3994 19.8089C15.0556 19.0839 15.6065 18.0684 16.0077 16.8442C16.7164 17.0373 17.3734 17.2804 17.9587 17.5715C16.9968 18.5996 15.778 19.3844 14.3994 19.8089Z" fill="black"/>
<line x1="20.3813" y1="20.6187" x2="3.38128" y2="3.61872" stroke="black" stroke-width="1.75"/>
</g>
<defs>
<clipPath id="clip0_397_291">
<rect width="24" height="24" fill="white"/>
</clipPath>
</defs>
</svg>
