<svg width="24" height="24" viewBox="0 0 24 24" fill="none" xmlns="http://www.w3.org/2000/svg">
<g clip-path="url(#clip0_392_295)">
<path d="M11.3196 1.95093V10.0256L7.85175 6.5578L6.68738 7.72218L10.9652 12L6.68738 16.2778L7.85175 17.4422L11.3196 13.9744V22.0491L12.7118 20.6822L16.7618 16.6322L17.3186 16.05L16.7618 15.4678L13.2939 12L16.7618 8.53218L17.3186 7.94999L16.7618 7.3678L12.7118 3.3178L11.3196 1.95093ZM12.9396 5.87437L15.0152 7.94999L12.9396 10.0256V5.87437ZM12.9396 13.9744L15.0152 16.05L12.9396 18.1256V13.9744Z" fill="black"/>
<g clip-path="url(#clip1_392_295)">
<path d="M11.19 1.94397V10.044L7.71271 6.56667L6.56732 7.71206L10.8546 11.9994L6.56732 16.2867L7.71271 17.4321L11.19 13.9548V22.0548L17.1954 16.0494L13.1454 11.9994L17.1954 7.94936L11.19 1.94397ZM12.81 5.85475L14.9046 7.94936L12.81 10.044V5.85475ZM7.14002 10.218L5.52002 11.838L7.14002 13.458L8.76002 11.838L7.14002 10.218ZM16.86 10.218L15.24 11.838L16.86 13.458L18.48 11.838L16.86 10.218ZM12.81 13.9548L14.9046 16.0494L12.81 18.144V13.9548Z" fill="black"/>
</g>
</g>
<defs>
<clipPath id="clip0_392_295">
<rect width="24" height="24" fill="white"/>
</clipPath>
<clipPath id="clip1_392_295">
<rect width="24" height="24" fill="white"/>
</clipPath>
</defs>
</svg>
