<svg width="20" height="20" viewBox="0 0 20 20" fill="none" xmlns="http://www.w3.org/2000/svg">
<path fill="black" d="M10 0.0400085C4.5092 0.0400085 0.0400391 4.50917 0.0400391 10C0.0400391 15.4908 4.5092 19.96 10 19.96C15.4909 19.96 19.96 15.4908 19.96 10C19.96 4.50917 15.4909 0.0400085 10 0.0400085ZM10 1.70001C14.5937 1.70001 18.3 5.40635 18.3 10C18.3 14.5937 14.5937 18.3 10 18.3C5.40638 18.3 1.70004 14.5937 1.70004 10C1.70004 5.40635 5.40638 1.70001 10 1.70001ZM11.66 3.36001C11.5939 3.36093 11.5278 3.3658 11.4623 3.3746C10.2598 3.5017 9.38704 4.84519 9.20895 8.54265C8.70826 8.81464 8.38207 9.32443 8.3449 9.89302C7.40281 10.2369 6.7946 10.0364 5.38641 9.47802L5.38479 9.47964C5.21504 9.42221 5.03712 9.39265 4.85793 9.3921C3.94114 9.3921 3.19793 10.1353 3.19793 11.0521C3.19861 11.3431 3.27576 11.6287 3.42164 11.8805L3.42002 11.8821C3.42434 11.8896 3.43021 11.8958 3.43461 11.9032C3.47163 11.9663 3.51279 12.027 3.55781 12.0847C3.59033 12.1271 3.62549 12.1659 3.66156 12.2047C3.66372 12.2069 3.66588 12.209 3.66805 12.2112C4.4375 13.0295 6.03723 13.0075 9.13275 11.4136C9.39358 11.5742 9.69375 11.6595 10 11.66C10.2554 11.6596 10.5073 11.6002 10.736 11.4866C11.4889 12.1171 11.6303 12.7457 11.8432 14.1792C11.8466 14.2003 11.8504 14.2214 11.8546 14.2424C11.8553 14.2476 11.8554 14.2502 11.8562 14.2554C12.012 15.0299 12.6921 15.5872 13.4821 15.5879C14.0747 15.5874 14.6221 15.2711 14.9184 14.7579H14.9217C14.9262 14.75 14.9286 14.7415 14.933 14.7336C14.9651 14.6765 14.9938 14.6174 15.0189 14.5569C15.0375 14.5135 15.0512 14.4684 15.066 14.424C15.0667 14.4217 15.0685 14.4197 15.0692 14.4175C15.0697 14.4153 15.0703 14.4132 15.0708 14.411C15.4206 13.3304 14.6158 11.9468 11.6584 10.0438C11.6592 10.0292 11.6597 10.0146 11.66 10C11.6595 9.44556 11.3822 8.928 10.9208 8.62046C11.0898 7.6542 11.562 7.21724 12.6927 6.32013C12.6987 6.31477 12.7046 6.30936 12.7105 6.30391C12.7294 6.28891 12.7382 6.28028 12.7575 6.26501V6.26339C13.1146 5.94873 13.3194 5.49594 13.32 5.02001C13.32 4.10322 12.5768 3.36001 11.66 3.36001Z" />
</svg>
