<svg width="24" height="24" viewBox="0 0 24 24" fill="none" xmlns="http://www.w3.org/2000/svg">
<g clip-path="url(#clip0_397_280)">
<path d="M12 2.10999C6.54298 2.10999 2.10999 6.54298 2.10999 12C2.10999 17.457 6.54298 21.89 12 21.89C17.457 21.89 21.89 17.457 21.89 12C21.89 6.54298 17.457 2.10999 12 2.10999ZM12 2.96999C16.9922 2.96999 21.03 7.00776 21.03 12C21.03 16.9922 16.9922 21.03 12 21.03C7.00776 21.03 2.96999 16.9922 2.96999 12C2.96999 7.00776 7.00776 2.96999 12 2.96999ZM11.57 3.88709C10.4554 4.16143 9.46913 5.48167 8.84133 7.35733C9.70692 7.53449 10.6261 7.63852 11.57 7.66303V3.88709ZM12.43 3.88709V7.66303C13.3833 7.63895 14.3029 7.53777 15.1612 7.36405C14.5334 5.48495 13.5454 4.16143 12.43 3.88709ZM9.59971 4.19112C8.22113 4.61553 7.0032 5.40033 6.04129 6.42846C6.62652 6.71957 7.28361 6.9627 7.99225 7.15577C8.39344 5.93156 8.94353 4.9161 9.59971 4.19112ZM14.4003 4.19112C15.0577 4.91739 15.609 5.93611 16.0102 7.16333C16.7253 6.96854 17.3821 6.72178 17.957 6.42594C16.9955 5.39867 15.7775 4.6151 14.4003 4.19112ZM18.5197 7.09782C17.8549 7.45859 17.089 7.75716 16.2479 7.98721C16.5235 9.07038 16.6885 10.28 16.7191 11.57H20.1481C20.0604 9.89643 19.4691 8.35729 18.5197 7.09782ZM5.47608 7.10286C4.52879 8.36147 3.93954 9.89858 3.85182 11.57H7.2809C7.31143 10.2774 7.47682 9.06538 7.75374 7.98049C6.9204 7.75259 6.15247 7.45761 5.47608 7.10286ZM8.59526 8.1829C8.33081 9.20845 8.17229 10.36 8.1409 11.57H11.57V8.52303C10.5431 8.49723 9.53954 8.38113 8.59526 8.1829ZM15.4056 8.18961C14.469 8.3844 13.4663 8.49809 12.43 8.52303V11.57H15.8591C15.8277 10.3625 15.6691 9.21344 15.4056 8.18961ZM3.85182 12.43C3.93954 14.1035 4.53084 15.6427 5.48028 16.9022C6.14506 16.5414 6.91098 16.2428 7.75206 16.0128C7.47643 14.9296 7.31143 13.72 7.2809 12.43H3.85182ZM8.1409 12.43C8.17229 13.6374 8.33083 14.7865 8.59442 15.8104C9.53096 15.6156 10.5337 15.5019 11.57 15.4769V12.43H8.1409ZM12.43 12.43V15.4769C13.4568 15.5027 14.4596 15.6188 15.4039 15.8171C15.6683 14.7915 15.8277 13.64 15.8591 12.43H12.43ZM16.7191 12.43C16.6885 13.7226 16.5232 14.9346 16.2462 16.0195C17.0796 16.2474 17.8475 16.5424 18.5239 16.8971C19.4712 15.6385 20.0604 14.1014 20.1481 12.43H16.7191ZM11.57 16.3369C10.6167 16.361 9.69709 16.4622 8.83881 16.6359C9.46661 18.515 10.4546 19.8385 11.57 20.1129V16.3369ZM12.43 16.3369V20.1129C13.5445 19.8385 14.5308 18.5183 15.1586 16.6426C14.293 16.4655 13.3738 16.3614 12.43 16.3369ZM7.98973 16.8366C7.27464 17.0314 6.61788 17.2782 6.04297 17.574C7.00445 18.6013 8.22242 19.3849 9.59971 19.8089C8.94224 19.0826 8.39092 18.0639 7.98973 16.8366ZM16.0077 16.8442C15.6065 18.0684 15.0556 19.0839 14.3994 19.8089C15.778 19.3844 16.9968 18.5996 17.9587 17.5715C17.3734 17.2804 16.7164 17.0373 16.0077 16.8442Z" fill="black"/>
</g>
<defs>
<clipPath id="clip0_397_280">
<rect width="24" height="24" fill="white"/>
</clipPath>
</defs>
</svg>
